<?xml version="1.0" encoding="UTF-8" standalone="no"?>
<svg
   xmlns:dc="http://purl.org/dc/elements/1.1/"
   xmlns:cc="http://creativecommons.org/ns#"
   xmlns:svg="http://www.w3.org/2000/svg"
   xmlns="http://www.w3.org/2000/svg"
   xml:space="preserve"
   viewBox="0 0 441.533 478.085"
   height="478.08499"
   width="441.53299"
   y="0px"
   x="0px"
   version="1.1">
<g transform="translate(-16.775,1.5)" style="fill:#00f700;stroke:#000000;stroke-width:3;stroke-miterlimit:4;stroke-dasharray:none">
    <g style="fill:#00f700;stroke:#000000;stroke-width:3;stroke-miterlimit:4;stroke-dasharray:none">
        <path style="fill:#00f700;stroke:#000000;stroke-width:3;stroke-miterlimit:4;stroke-dasharray:none" d="m 237.545,255.816 c 9.899,0 18.468,-3.609 25.696,-10.848 7.23,-7.229 10.854,-15.799 10.854,-25.694 V 36.547 c 0,-9.9 -3.62,-18.464 -10.854,-25.693 C 256.014,3.617 247.444,0 237.545,0 c -9.9,0 -18.464,3.621 -25.697,10.854 -7.233,7.229 -10.85,15.797 -10.85,25.693 v 182.728 c 0,9.895 3.617,18.464 10.85,25.694 7.233,7.238 15.8,10.847 25.697,10.847 z" />
	<path style="fill:#00f700;stroke:#000000;stroke-width:3;stroke-miterlimit:4;stroke-dasharray:none" d="m 433.836,157.887 c -15.325,-30.642 -36.878,-56.339 -64.666,-77.084 -7.994,-6.09 -17.035,-8.47 -27.123,-7.139 -10.089,1.333 -18.083,6.091 -23.983,14.273 -6.091,7.993 -8.418,16.986 -6.994,26.979 1.423,9.998 6.139,18.037 14.133,24.128 18.645,14.084 33.072,31.312 43.25,51.678 10.184,20.364 15.27,42.065 15.27,65.091 0,19.801 -3.854,38.688 -11.561,56.678 -7.706,17.987 -18.13,33.544 -31.265,46.679 -13.135,13.131 -28.688,23.551 -46.678,31.261 -17.987,7.71 -36.878,11.57 -56.673,11.57 -19.792,0 -38.684,-3.86 -56.671,-11.57 -17.989,-7.71 -33.547,-18.13 -46.682,-31.261 -13.129,-13.135 -23.551,-28.691 -31.261,-46.679 -7.708,-17.99 -11.563,-36.877 -11.563,-56.678 0,-23.026 5.092,-44.724 15.274,-65.091 10.183,-20.364 24.601,-37.591 43.253,-51.678 7.994,-6.095 12.703,-14.133 14.133,-24.128 1.427,-9.989 -0.903,-18.986 -6.995,-26.979 -5.901,-8.182 -13.844,-12.941 -23.839,-14.273 -9.994,-1.332 -19.085,1.049 -27.268,7.139 -27.792,20.745 -49.344,46.442 -64.669,77.084 -15.324,30.646 -22.983,63.288 -22.983,97.927 0,29.697 5.806,58.054 17.415,85.082 11.613,27.028 27.218,50.34 46.826,69.948 19.602,19.603 42.919,35.215 69.949,46.815 27.028,11.615 55.388,17.426 85.08,17.426 29.693,0 58.052,-5.811 85.081,-17.426 27.031,-11.604 50.347,-27.213 69.952,-46.815 19.602,-19.602 35.207,-42.92 46.818,-69.948 11.611,-27.028 17.412,-55.392 17.412,-85.082 0.001,-34.64 -7.648,-67.282 -22.972,-97.927 z" /></g>
</g>
<g transform="translate(-16.775,1.5)"></g>
<g transform="translate(-16.775,1.5)"></g>
<g transform="translate(-16.775,1.5)"></g>
<g transform="translate(-16.775,1.5)"></g>
<g transform="translate(-16.775,1.5)"></g>
<g transform="translate(-16.775,1.5)"></g>
<g transform="translate(-16.775,1.5)"></g>
<g transform="translate(-16.775,1.5)"></g>
<g transform="translate(-16.775,1.5)"></g>
<g transform="translate(-16.775,1.5)"></g>
<g transform="translate(-16.775,1.5)"></g>
<g transform="translate(-16.775,1.5)"></g>
<g transform="translate(-16.775,1.5)"></g>
<g transform="translate(-16.775,1.5)"></g>
<g transform="translate(-16.775,1.5)"></g>
</svg>