<?xml version="1.0" encoding="UTF-8" standalone="no"?>
<svg  title="29 EDO keyboard, Brainin layout"
   xmlns:svg="http://www.w3.org/2000/svg"
   xmlns="http://www.w3.org/2000/svg"
   version="1.1"
   viewBox="0 0 1334.368 148.52023"
   height="100%"
   width="11.130380075061751%">
  <g
     transform="translate(196.22563,-106.32321)">
    <rect
       y="106.82322"
       x="-5.2259116"
       height="147.52023"
       width="31.617575"/>
    <rect
       y="106.82322"
       x="-36.975849"
       height="147.52023"
       width="31.617575"/>
    <rect
       y="106.82322"
       x="-100.47572"
       height="147.52023"
       width="31.617575"/>
    <rect
       y="106.82322"
       x="-132.22566"
       height="147.52023"
       width="31.617575"/>
    <rect
       y="106.82322"
       x="-163.9756"
       height="147.52023"
       width="31.617575"/>
    <rect
       y="106.82322"
       x="-195.72563"
       height="147.52023"
       width="31.617575"/>
    <rect
       y="106.82327"
       x="-174.55888"
       height="84.020187"
       width="21.034323"
       style="fill:black"/>
    <rect
       y="106.82327"
       x="-142.80894"
       height="84.020187"
       width="21.034323"
       style="fill:black"/>
    <rect
       y="106.82327"
       x="-111.05901"
       height="84.020187"
       width="21.034323"
       style="fill:black"/>
    <rect
       y="106.82322"
       x="-68.725792"
       height="147.52023"
       width="31.617575"/>
    <rect
       y="106.82327"
       x="-47.559132"
       height="84.020187"
       width="21.034323"
       style="fill:black"/>
    <rect
       y="106.82327"
       x="-15.809195"
       height="84.020187"
       width="21.034323"
       style="fill:black"/>
    <rect
       y="106.82321"
       x="217.02403"
       height="147.52023"
       width="31.617575"/>
    <rect
       y="106.82321"
       x="185.27403"
       height="147.52023"
       width="31.617575"/>
    <rect
       y="106.82321"
       x="121.77396"
       height="147.52023"
       width="31.617575"/>
    <rect
       y="106.82321"
       x="90.023933"
       height="147.52023"
       width="31.617575"/>
    <rect
       y="106.82321"
       x="58.273968"
       height="147.52023"
       width="31.617575"/>
    <rect
       y="106.82321"
       x="26.524027"
       height="147.52023"
       width="31.617575"/>
    <rect
       y="106.82326"
       x="47.690701"
       height="84.020187"
       width="21.034323"
       style="fill:black"/>
    <rect
       y="106.82326"
       x="79.440651"
       height="84.020187"
       width="21.034323"
       style="fill:black"/>
    <rect
       y="106.82326"
       x="111.19068"
       height="84.020187"
       width="21.034323"
       style="fill:black"/>
    <rect
       y="106.82321"
       x="153.524"
       height="147.52023"
       width="31.617575"/>
    <rect
       y="106.82326"
       x="174.69075"
       height="84.020187"
       width="21.034323"
       style="fill:black"/>
    <rect
       y="106.82326"
       x="206.44075"
       height="84.020187"
       width="21.034323"
       style="fill:black"/>
    <rect
       y="106.82321"
       x="439.27399"
       height="147.52023"
       width="31.617575"/>
    <rect
       y="106.82321"
       x="407.52399"
       height="147.52023"
       width="31.617575"/>
    <rect
       y="106.82321"
       x="344.02405"
       height="147.52023"
       width="31.617575"/>
    <rect
       y="106.82321"
       x="312.27402"
       height="147.52023"
       width="31.617575"/>
    <rect
       y="106.82321"
       x="280.52402"
       height="147.52023"
       width="31.617575"/>
    <rect
       y="106.82321"
       x="248.77403"
       height="147.52023"
       width="31.617575"/>
    <rect
       y="106.82326"
       x="269.94073"
       height="84.020187"
       width="21.034323"
       style="fill:black"/>
    <rect
       y="106.82326"
       x="301.69073"
       height="84.020187"
       width="21.034323"
       style="fill:black"/>
    <rect
       y="106.82326"
       x="333.44073"
       height="84.020187"
       width="21.034323"
       style="fill:black"/>
    <rect
       y="106.82321"
       x="375.77399"
       height="147.52023"
       width="31.617575"/>
    <rect
       y="106.82326"
       x="396.94073"
       height="84.020187"
       width="21.034323"
       style="fill:black"/>
    <rect
       y="106.82326"
       x="428.69073"
       height="84.020187"
       width="21.034323"
       style="fill:black"/>
    <rect
       y="106.82321"
       x="661.52399"
       height="147.52023"
       width="31.617575"/>
    <rect
       y="106.82321"
       x="629.77405"
       height="147.52023"
       width="31.617575"/>
    <rect
       y="106.82321"
       x="566.27411"
       height="147.52023"
       width="31.617575"/>
    <rect
       y="106.82321"
       x="534.52405"
       height="147.52023"
       width="31.617575"
       style="fill:azure"/>
    <rect
       y="106.82321"
       x="502.77405"
       height="147.52023"
       width="31.617575"/>
    <rect
       y="106.82321"
       x="471.02399"
       height="147.52023"
       width="31.617575"/>
    <rect
       y="106.82326"
       x="492.19073"
       height="84.020187"
       width="21.034323"
       style="fill:black"/>
    <rect
       y="106.82326"
       x="523.9408"
       height="84.020187"
       width="21.034323"
       style="fill:black"/>
    <rect
       y="106.82326"
       x="555.6908"
       height="84.020187"
       width="21.034323"
       style="fill:black"/>
    <rect
       y="106.82321"
       x="598.02411"
       height="147.52023"
       width="31.617575"/>
    <rect
       y="106.82326"
       x="619.1908"
       height="84.020187"
       width="21.034323"
       style="fill:black"/>
    <rect
       y="106.82326"
       x="650.94073"
       height="84.020187"
       width="21.034323"
       style="fill:black"/>
    <rect
       y="106.82322"
       x="883.77386"
       height="147.52023"
       width="31.617575"/>
    <rect
       y="106.82322"
       x="852.02362"
       height="147.52023"
       width="31.617575"/>
    <rect
       y="106.82322"
       x="788.52374"
       height="147.52023"
       width="31.617575"/>
    <rect
       y="106.82322"
       x="756.7738"
       height="147.52023"
       width="31.617575"/>
    <rect
       y="106.82322"
       x="725.02386"
       height="147.52023"
       width="31.617575"/>
    <rect
       y="106.82322"
       x="693.27393"
       height="147.52023"
       width="31.617575"/>
    <rect
       y="106.82327"
       x="714.44061"
       height="84.020187"
       width="21.034323"
       style="fill:black"/>
    <rect
       y="106.82327"
       x="746.19055"
       height="84.020187"
       width="21.034323"
       style="fill:black"/>
    <rect
       y="106.82327"
       x="777.94049"
       height="84.020187"
       width="21.034323"
       style="fill:black"/>
    <rect
       y="106.82322"
       x="820.27368"
       height="147.52023"
       width="31.617575"/>
    <rect
       y="106.82327"
       x="841.44037"
       height="84.020187"
       width="21.034323"
       style="fill:black"/>
    <rect
       y="106.82327"
       x="873.19049"
       height="84.020187"
       width="21.034323"
       style="fill:black"/>
    <rect
       y="106.82322"
       x="1106.0248"
       height="147.52023"
       width="31.617575"/>
    <rect
       y="106.82322"
       x="1074.2747"
       height="147.52023"
       width="31.617575"/>
    <rect
       y="106.82322"
       x="1010.7744"
       height="147.52023"
       width="31.617575"/>
    <rect
       y="106.82322"
       x="979.02423"
       height="147.52023"
       width="31.617575"/>
    <rect
       y="106.82322"
       x="947.27411"
       height="147.52023"
       width="31.617575"/>
    <rect
       y="106.82322"
       x="915.52399"
       height="147.52023"
       width="31.617575"/>
    <rect
       y="106.82327"
       x="936.69073"
       height="84.020187"
       width="21.034323"
       style="fill:black"/>
    <rect
       y="106.82327"
       x="968.44086"
       height="84.020187"
       width="21.034323"
       style="fill:black"/>
    <rect
       y="106.82327"
       x="1000.191"
       height="84.020187"
       width="21.034323"
       style="fill:black"/>
    <rect
       y="106.82322"
       x="1042.5245"
       height="147.52023"
       width="31.617575"/>
    <rect
       y="106.82327"
       x="1063.6912"
       height="84.020187"
       width="21.034323"
       style="fill:black"/>
    <rect
       y="106.82327"
       x="1095.4413"
       height="84.020187"
       width="21.034323"
       style="fill:black"/>
  </g>
</svg>
