<?xml version="1.0" encoding="UTF-8" standalone="no"?>
<svg
   xmlns:svg="http://www.w3.org/2000/svg"
   xmlns="http://www.w3.org/2000/svg"
   width="2075.1973mm"
   height="635.35315mm"
   viewBox="0 0 2075.1973 635.35315"
   version="1.1"
   title="29 EDO keyboard, Kryukov layout">
  <g>
  <rect
     rx="16"
     y="0.49999997"
     x="1820.8293"
     height="126.85326"
     width="84.534"/>
  <rect
     rx="16"
     y="508.35321"
     x="0.49999997"
     height="126.49998"
     width="84.534668"
     style="fill:white"/>
  <rect
     rx="16"
     y="508.35321"
     x="85.167969"
     height="126.49998"
     width="84.534668"
     style="fill:white"/>
  <rect
     rx="16"
     y="508.35321"
     x="169.83545"
     height="126.49998"
     width="84.534668"
     style="fill:white"/>
  <rect
     rx="16"
     y="508.35321"
     x="254.50146"
     height="126.49998"
     width="84.534"/>
  <rect
     rx="16"
     y="508.35321"
     x="339.16748"
     height="126.49998"
     width="84.534"/>
  <rect
     rx="16"
     y="508.35321"
     x="423.8335"
     height="126.49998"
     width="84.534"/>
  <rect
     rx="16"
     y="508.35321"
     x="508.49951"
     height="126.49998"
     width="84.534668"
     style="fill:white"/>
  <rect
     rx="16"
     y="508.35321"
     x="593.16553"
     height="126.49998"
     width="84.534668"
     style="fill:white"/>
  <rect
     rx="16"
     y="508.35321"
     x="677.83154"
     height="126.49998"
     width="84.534668"
     style="fill:white"/>
  <rect
     rx="16"
     y="508.35321"
     x="762.49756"
     height="126.49998"
     width="84.534"/>
  <rect
     rx="16"
     y="508.35321"
     x="847.16357"
     height="126.49998"
     width="84.534"/>
  <rect
     rx="16"
     y="508.35321"
     x="931.82959"
     height="126.49998"
     width="84.534"/>
  <rect
     rx="16"
     y="508.35321"
     x="1016.4956"
     height="126.49998"
     width="84.534668"
     style="fill:white"/>
  <rect
     rx="16"
     y="508.35321"
     x="1101.1616"
     height="126.49998"
     width="84.534668"
     style="fill:white"/>
  <rect
     rx="16"
     y="508.35321"
     x="1185.8278"
     height="126.49998"
     width="84.534668"
     style="fill:white"/>
  <rect
     rx="16"
     y="508.35321"
     x="1270.4948"
     height="126.49998"
     width="84.534"/>
  <rect
     rx="16"
     y="508.35321"
     x="1355.1616"
     height="126.49998"
     width="84.534"/>
  <rect
     rx="16"
     y="508.35321"
     x="1439.8286"
     height="126.49998"
     width="84.534"/>
  <rect
     rx="16"
     y="508.35321"
     x="1524.4956"
     height="126.49998"
     width="84.534668"
     style="fill:white"/>
  <rect
     rx="16"
     y="508.35321"
     x="1609.1626"
     height="126.49998"
     width="84.534668"
     style="fill:white"/>
  <rect
     rx="16"
     y="508.35321"
     x="1693.8296"
     height="126.49998"
     width="84.534668"
     style="fill:white"/>
  <rect
     rx="16"
     y="508.35321"
     x="1778.4961"
     height="126.49998"
     width="84.534"/>
  <rect
     rx="16"
     y="508.35321"
     x="1863.1626"
     height="126.49998"
     width="84.534"/>
  <rect
     rx="16"
     y="508.35321"
     x="1947.8291"
     height="126.49998"
     width="84.534"/>
  <rect
     rx="16"
     y="381.35321"
     x="11.083496"
     height="126.50004"
     width="84.534"/>
  <rect
     rx="16"
     y="381.35321"
     x="95.751465"
     height="126.50004"
     width="84.534"/>
  <rect
     rx="16"
     y="381.35321"
     x="180.4187"
     height="126.50004"
     width="84.534"/>
  <rect
     rx="16"
     y="381.35321"
     x="265.08472"
     height="126.50004"
     width="84.534"/>
  <rect
     style="fill:white"
     rx="16"
     y="381.35321"
     x="349.75073"
     height="126.50004"
     width="84.534668"/>
  <rect
     rx="16"
     y="381.35321"
     x="434.41675"
     height="126.50004"
     width="84.534"/>
  <rect
     rx="16"
     y="381.35321"
     x="519.08276"
     height="126.50004"
     width="84.534"/>
  <rect
     rx="16"
     y="381.35321"
     x="603.74878"
     height="126.50004"
     width="84.534668"/>
  <rect
     rx="16"
     y="381.35321"
     x="688.41479"
     height="126.50004"
     width="84.534"/>
  <rect
     rx="16"
     y="381.35321"
     x="773.08081"
     height="126.50004"
     width="84.534"/>
  <rect
     style="fill:white"
     rx="16"
     y="381.35321"
     x="857.74683"
     height="126.50004"
     width="84.534"/>
  <rect
     rx="16"
     y="381.35321"
     x="942.41284"
     height="126.50004"
     width="84.534"/>
  <rect
     rx="16"
     y="381.35321"
     x="1027.0789"
     height="126.50004"
     width="84.534"/>
  <rect
     rx="16"
     y="381.35321"
     x="1111.7449"
     height="126.50004"
     width="84.534"/>
  <rect
     rx="16"
     y="381.35321"
     x="1196.4111"
     height="126.50004"
     width="84.534"/>
  <rect
     rx="16"
     y="381.35321"
     x="1281.0781"
     height="126.50004"
     width="84.534"/>
  <rect
     style="fill:azure"
     rx="16"
     y="381.35315"
     x="1365.745"
     height="126.50004"
     width="84.534"/>
  <rect
     rx="16"
     y="381.35321"
     x="1450.412"
     height="126.50004"
     width="84.534"/>
  <rect
     rx="16"
     y="381.35321"
     x="1535.079"
     height="126.50004"
     width="84.534"/>
  <rect
     rx="16"
     y="381.35321"
     x="1619.746"
     height="126.50004"
     width="84.534"/>
  <rect
     rx="16"
     y="381.35321"
     x="1704.413"
     height="126.50004"
     width="84.534"/>
  <rect
     rx="16"
     y="381.35321"
     x="1789.0795"
     height="126.50004"
     width="84.534"/>
  <rect
     style="fill:white"
     rx="16"
     y="381.35321"
     x="1873.746"
     height="126.50004"
     width="84.534"/>
  <rect
     rx="16"
     y="381.35321"
     x="1958.4125"
     height="126.50004"
     width="84.534"/>
  <rect
     rx="16"
     y="254.35318"
     x="21.666992"
     height="126.49994"
     width="84.534"/>
  <rect
     rx="16"
     y="254.35318"
     x="106.33496"
     height="126.49994"
     width="84.534"/>
  <rect
     rx="16"
     y="254.35318"
     x="191.00195"
     height="126.49994"
     width="84.534"/>
  <rect
     rx="16"
     y="254.35318"
     x="275.66797"
     height="126.49994"
     width="84.534668"
     style="fill:white"/>
  <rect
     rx="16"
     y="254.35318"
     x="360.33398"
     height="126.49994"
     width="84.534"/>
  <rect
     rx="16"
     y="254.35318"
     x="445"
     height="126.49994"
     width="84.534668"
     style="fill:white"/>
  <rect
     rx="16"
     y="254.35318"
     x="529.66602"
     height="126.49994"
     width="84.534"/>
  <rect
     rx="16"
     y="254.35318"
     x="614.33203"
     height="126.49994"
     width="84.534"/>
  <rect
     rx="16"
     y="254.35318"
     x="698.99805"
     height="126.49994"
     width="84.534"/>
  <rect
     rx="16"
     y="254.35318"
     x="783.66406"
     height="126.49994"
     width="84.534668"
     style="fill:white"/>
  <rect
     rx="16"
     y="254.35318"
     x="868.33008"
     height="126.49994"
     width="84.534"/>
  <rect
     rx="16"
     y="254.35318"
     x="952.99609"
     height="126.49994"
     width="84.534668"
     style="fill:white"/>
  <rect
     rx="16"
     y="254.35318"
     x="1037.6621"
     height="126.49994"
     width="84.534"/>
  <rect
     rx="16"
     y="254.35318"
     x="1122.3281"
     height="126.49994"
     width="84.534"/>
  <rect
     rx="16"
     y="254.35318"
     x="1206.9945"
     height="126.49994"
     width="84.534"/>
  <rect
     rx="16"
     y="254.35318"
     x="1291.6615"
     height="126.49994"
     width="84.534668"
     style="fill:white"/>
  <rect
     rx="16"
     y="254.35318"
     x="1376.3284"
     height="126.49994"
     width="84.534"/>
  <rect
     rx="16"
     y="254.35318"
     x="1460.9954"
     height="126.49994"
     width="84.534668"
     style="fill:white"/>
  <rect
     rx="16"
     y="254.35318"
     x="1545.6624"
     height="126.49994"
     width="84.534668"/>
  <rect
     rx="16"
     y="254.35318"
     x="1630.3293"
     height="126.49994"
     width="84.534"/>
  <rect
     rx="16"
     y="254.35318"
     x="1714.9962"
     height="126.49994"
     width="84.534"/>
  <rect
     rx="16"
     y="254.35318"
     x="1799.6627"
     height="126.49994"
     width="84.534668"
     style="fill:white"/>
  <rect
     rx="16"
     y="254.35318"
     x="1884.3292"
     height="126.49994"
     width="84.534"/>
  <rect
     rx="16"
     y="254.35318"
     x="1968.9958"
     height="126.49994"
     width="84.534668"
     style="fill:white"/>
  <rect
     rx="16"
     y="127.35342"
     x="32.250488"
     height="126.49995"
     width="84.534"/>
  <rect
     rx="16"
     y="127.35342"
     x="116.91845"
     height="126.49995"
     width="84.534668"/>
  <rect style="fill:white"
     rx="16"
     y="127.35342"
     x="201.58521"
     height="126.49995"
     width="84.534668"/>
  <rect
     rx="16"
     y="127.35342"
     x="286.25122"
     height="126.49995"
     width="84.534"/>
  <rect
     rx="16"
     y="127.35342"
     x="370.91724"
     height="126.49995"
     width="84.534"/>
  <rect
     rx="16"
     y="127.35342"
     x="455.58325"
     height="126.49995"
     width="84.534"/>
  <rect
     rx="16"
     y="127.35342"
     x="540.24927"
     height="126.49995"
     width="84.534668"
     228"/>
  <rect
     rx="16"
     y="127.35342"
     x="624.91528"
     height="126.49995"
     width="84.534"/>
  <rect
     style="fill:white"
     rx="16"
     y="127.35342"
     x="709.5813"
     height="126.49995"
     width="84.534"/>
  <rect
     rx="16"
     y="127.35342"
     x="794.24731"
     height="126.49995"
     width="84.534"/>
  <rect
     rx="16"
     y="127.35342"
     x="878.91333"
     height="126.49995"
     width="84.534"/>
  <rect
     rx="16"
     y="127.35342"
     x="963.57935"
     height="126.49995"
     width="84.534"/>
  <rect
     rx="16"
     y="127.35342"
     x="1048.2454"
     height="126.49995"
     width="84.534"/>
  <rect
     rx="16"
     y="127.35342"
     x="1132.9114"
     height="126.49995"
     width="84.534"/>
  <rect
     style="fill:white"
     rx="16"
     y="127.35342"
     x="1217.5779"
     height="126.49995"
     width="84.534"/>
  <rect
     rx="16"
     y="127.35342"
     x="1302.2449"
     height="126.49995"
     width="84.534"/>
  <rect
     rx="16"
     y="127.35342"
     x="1386.9117"
     height="126.49995"
     width="84.534"/>
  <rect
     rx="16"
     y="127.35342"
     x="1471.5787"
     height="126.49995"
     width="84.534"/>
  <rect
     rx="16"
     y="127.35342"
     x="1556.2457"
     height="126.49995"
     width="84.534"/>
  <rect
     rx="16"
     y="127.35342"
     x="1640.9127"
     height="126.49995"
     width="84.534"/>
  <rect
     style="fill:white"
     rx="16"
     y="127.35342"
     x="1725.5796"
     height="126.49995"
     width="84.534"/>
  <rect
     rx="16"
     y="127.35342"
     x="1810.2461"
     height="126.49995"
     width="84.534"/>
  <rect
     rx="16"
     y="127.35342"
     x="1894.9126"
     height="126.49995"
     width="84.534"/>
  <rect
     rx="16"
     y="127.35342"
     x="1979.5791"
     height="126.49995"
     width="84.534"/>
  <rect
     rx="16"
     y="0.49999997"
     x="42.833984"
     height="126.85326"
     width="84.534"/>
  <rect
     rx="16"
     y="0.49999997"
     x="127.50195"
     height="126.85326"
     width="84.534"/>
  <rect
     rx="16"
     y="0.49999997"
     x="212.16846"
     height="126.85326"
     width="84.534"/>
  <rect
     rx="16"
     y="0.49999997"
     x="296.83447"
     height="126.85326"
     width="84.534"/>
  <rect
     rx="16"
     y="0.49999997"
     x="381.50049"
     height="126.85326"
     width="84.534"/>
  <rect
     rx="16"
     y="0.49999997"
     x="466.1665"
     height="126.85326"
     width="84.534"/>
  <rect
     rx="16"
     y="0.49999997"
     x="550.83252"
     height="126.85326"
     width="84.534"/>
  <rect
     rx="16"
     y="0.49999997"
     x="635.49854"
     height="126.85326"
     width="84.534"/>
  <rect
     rx="16"
     y="0.49999997"
     x="720.16455"
     height="126.85326"
     width="84.534"/>
  <rect
     rx="16"
     y="0.49999997"
     x="804.83057"
     height="126.85326"
     width="84.534"/>
  <rect
     rx="16"
     y="0.49999997"
     x="889.49658"
     height="126.85326"
     width="84.534"/>
  <rect
     rx="16"
     y="0.49999997"
     x="974.1626"
     height="126.85326"
     width="84.534"/>
  <rect
     rx="16"
     y="0.49999997"
     x="1058.8286"
     height="126.85326"
     width="84.534"/>
  <rect
     rx="16"
     y="0.49999997"
     x="1143.4946"
     height="126.85326"
     width="84.534"/>
  <rect
     rx="16"
     y="0.49999997"
     x="1228.1613"
     height="126.85326"
     width="84.534"/>
  <rect
     rx="16"
     y="0.49999997"
     x="1312.8282"
     height="126.85326"
     width="84.534"/>
  <rect
     rx="16"
     y="0.49999997"
     x="1397.4951"
     height="126.85326"
     width="84.534"/>
  <rect
     rx="16"
     y="0.49999997"
     x="1482.1621"
     height="126.85326"
     width="84.534"/>
  <rect
     rx="16"
     y="0.49999997"
     x="1566.8291"
     height="126.85326"
     width="84.534"/>
  <rect
     rx="16"
     y="0.49999997"
     x="1651.4961"
     height="126.85326"
     width="84.5346"/>
  <rect
     rx="16"
     y="0.49999997"
     x="1736.1628"
     height="126.85326"
     width="84.5346"/>
  <rect
     rx="16"
     y="0.49999997"
     x="1905.4958"
     height="126.85326"
     width="84.5346"/>
  <rect
     rx="16"
     y="0.49999997"
     x="1990.1625"
     height="126.85326"
     width="84.5346"/>
  </g>
</svg>
