<?xml version="1.0" encoding="UTF-8" standalone="no"?>
<svg title = "29 EDO keyboard, Ogolevets layout"
   xmlns:svg="http://www.w3.org/2000/svg"
   xmlns="http://www.w3.org/2000/svg"
   width="100%"
   height="18.7690142787507%"
   viewBox="0 0 210.2775 39.467014"
   version="1.1">
  <g
     transform="translate(508.06137,-82.986735)">
    <rect
       y="83.119026"
       x="-507.92908"
       height="39.202431"
       width="8.4005213"/>
    <rect
       y="83.119026"
       x="-499.52859"
       height="39.202431"
       width="8.4005213"/>
    <rect
       y="83.119026"
       x="-491.12808"
       height="39.202431"
       width="8.4005213"/>
    <rect
       y="83.119026"
       x="-482.72754"
       height="39.202431"
       width="8.4005213"/>
    <rect
       y="83.119026"
       x="-474.32703"
       height="39.202431"
       width="8.4005213"/>
    <rect
       y="83.119026"
       x="-465.92648"
       height="39.202431"
       width="8.4005213"/>
    <rect
       y="83.119026"
       x="-457.52597"
       height="39.202431"
       width="8.4005213"/>
    <rect
       y="83.119026"
       x="-449.12546"
       height="39.202431"
       width="8.4005213"/>
    <rect
       y="83.119026"
       x="-440.72491"
       height="39.202431"
       width="8.4005213"/>
    <rect
       y="83.119026"
       x="-432.3244"
       height="39.202431"
       width="8.4005213"/>
    <rect
       y="83.119026"
       x="-423.92389"
       height="39.202431"
       width="8.4005213"/>
    <rect
       y="83.119026"
       x="-415.52338"
       height="39.202431"
       width="8.4005213"/>
    <rect
       y="83.119026"
       x="-407.12283"
       height="39.202431"
       width="8.4005213"/>
    <rect
       y="83.119026"
       x="-398.72232"
       height="39.202431"
       width="8.4005213"/>
    <rect
       y="83.119026"
       x="-390.32181"
       height="39.202431"
       width="8.4005213"/>
    <rect
       y="83.119026"
       x="-381.92126"
       height="39.202431"
       width="8.4005213"/>
    <rect
       y="83.119026"
       x="-373.52075"
       height="39.202431"
       width="8.4005213"
       style="fill:azure"/>
    <rect
       y="83.119026"
       x="-365.12021"
       height="39.202431"
       width="8.4005213"/>
    <rect
       y="83.119026"
       x="-356.7197"
       height="39.202431"
       width="8.4005213"/>
    <rect
       y="83.119026"
       x="-348.31918"
       height="39.202431"
       width="8.4005213"/>
    <rect
       y="83.119026"
       x="-339.91867"
       height="39.202431"
       width="8.4005213"/>
    <rect
       y="83.119026"
       x="-331.51816"
       height="39.202431"
       width="8.4005213"/>
    <rect
       y="83.119026"
       x="-323.11768"
       height="39.202431"
       width="8.4005213"/>
    <rect
       y="83.119026"
       x="-314.71716"
       height="39.202431"
       width="8.4005213"/>
    <rect
       y="83.119026"
       x="-306.31668"
       height="39.202431"
       width="8.4005213"/>
    <rect
       y="83.119026"
       x="-502.32877"
       height="5.600347"
       width="5.600347"
       style="fill:lightGray"/>
    <rect
       y="88.719368"
       x="-502.32877"
       height="5.600347"
       width="5.600347"/>
    <rect
       y="94.31971"
       x="-502.32877"
       height="5.600347"
       width="5.600347"/>
    <rect
       y="99.920059"
       x="-502.32877"
       height="5.600347"
       width="5.600347"
       style="fill:lightGray"/>
    <rect
       y="83.119026"
       x="-493.92822"
       height="5.600347"
       width="5.600347"
       style="fill:lightGray"/>
    <rect
       y="88.719368"
       x="-493.92822"
       height="5.600347"
       width="5.600347"/>
    <rect
       y="94.31971"
       x="-493.92822"
       height="5.600347"
       width="5.600347"/>
    <rect
       y="99.920059"
       x="-493.92822"
       height="5.600347"
       width="5.600347"
       style="fill:lightGray"/>
    <rect
       y="83.119026"
       x="-485.52771"
       height="5.600347"
       width="5.600347"
       style="fill:lightGray"/>
    <rect
       y="88.719368"
       x="-485.52771"
       height="5.600347"
       width="5.600347"/>
    <rect
       y="94.31971"
       x="-485.52771"
       height="5.600347"
       width="5.600347"/>
    <rect
       y="99.920059"
       x="-485.52771"
       height="5.600347"
       width="5.600347"
       style="fill:lightGray"/>
    <rect
       y="83.119026"
       x="-468.72665"
       height="5.600347"
       width="5.600347"
       style="fill:lightGray"/>
    <rect
       y="88.719368"
       x="-468.72665"
       height="5.600347"
       width="5.600347"/>
    <rect
       y="94.31971"
       x="-468.72665"
       height="5.600347"
       width="5.600347"/>
    <rect
       y="99.920059"
       x="-468.72665"
       height="5.600347"
       width="5.600347"
       style="fill:lightGray"/>
    <rect
       y="83.119026"
       x="-460.32614"
       height="5.600347"
       width="5.600347"
       style="fill:lightGray"/>
    <rect
       y="88.719368"
       x="-460.32614"
       height="5.600347"
       width="5.600347"/>
    <rect
       y="94.31971"
       x="-460.32614"
       height="5.600347"
       width="5.600347"/>
    <rect
       y="99.920059"
       x="-460.32614"
       height="5.600347"
       width="5.600347"
       style="fill:lightGray"/>
    <rect
       width="5.600347"
       height="5.600347"
       x="-477.1272"
       y="83.119026"
       style="fill:lightGray"/>
    <rect
       width="5.600347"
       height="5.600347"
       x="-451.92563"
       y="83.119026"
       style="fill:lightGray"/>
    <rect
       width="5.600347"
       height="5.600347"
       x="-418.32355"
       y="83.119026"
       style="fill:lightGray"/>
    <rect
       y="83.119026"
       x="-443.52509"
       height="5.600347"
       width="5.600347"
       style="fill:lightGray"/>
    <rect
       y="88.719368"
       x="-443.52509"
       height="5.600347"
       width="5.600347"/>
    <rect
       y="94.31971"
       x="-443.52509"
       height="5.600347"
       width="5.600347"/>
    <rect
       y="99.920059"
       x="-443.52509"
       height="5.600347"
       width="5.600347"
       style="fill:lightGray"/>
    <rect
       y="83.119026"
       x="-435.12454"
       height="5.600347"
       width="5.600347"
       style="fill:lightGray"/>
    <rect
       y="88.719368"
       x="-435.12454"
       height="5.600347"
       width="5.600347"/>
    <rect
       y="94.31971"
       x="-435.12454"
       height="5.600347"
       width="5.600347"/>
    <rect
       y="99.920059"
       x="-435.12454"
       height="5.600347"
       width="5.600347"
       style="fill:lightGray"/>
    <rect
       y="83.119026"
       x="-426.72403"
       height="5.600347"
       width="5.600347"
       style="fill:lightGray"/>
    <rect
       y="88.719368"
       x="-426.72403"
       height="5.600347"
       width="5.600347"/>
    <rect
       y="94.31971"
       x="-426.72403"
       height="5.600347"
       width="5.600347"/>
    <rect
       y="99.920059"
       x="-426.72403"
       height="5.600347"
       width="5.600347"
       style="fill:lightGray"/>
    <rect
       y="83.119026"
       x="-384.72141"
       height="5.600347"
       width="5.600347"
       style="fill:lightGray"/>
    <rect
       y="88.719368"
       x="-384.72141"
       height="5.600347"
       width="5.600347"/>
    <rect
       y="94.31971"
       x="-384.72141"
       height="5.600347"
       width="5.600347"/>
    <rect
       y="99.920059"
       x="-384.72141"
       height="5.600347"
       width="5.600347"
       style="fill:lightGray"/>
    <rect
       y="83.119026"
       x="-376.32089"
       height="5.600347"
       width="5.600347"
       style="fill:lightGray"/>
    <rect
       y="88.719368"
       x="-376.32089"
       height="5.600347"
       width="5.600347"/>
    <rect
       y="94.31971"
       x="-376.32089"
       height="5.600347"
       width="5.600347"/>
    <rect
       y="99.920059"
       x="-376.32089"
       height="5.600347"
       width="5.600347"
       style="fill:lightGray"/>
    <rect
       y="83.119026"
       x="-367.92035"
       height="5.600347"
       width="5.600347"
       style="fill:lightGray"/>
    <rect
       y="88.719368"
       x="-367.92035"
       height="5.600347"
       width="5.600347"/>
    <rect
       y="99.611382"
       x="-367.92035"
       height="5.600347"
       width="5.600347"
       style="fill:lightGray"/>
    <rect
       y="94.31971"
       x="-367.92035"
       height="5.600347"
       width="5.600347"/>
    <rect
       y="83.119026"
       x="-409.92297"
       height="5.600347"
       width="5.600347"
       style="fill:lightGray"/>
    <rect
       y="88.719368"
       x="-409.92297"
       height="5.600347"
       width="5.600347"/>
    <rect
       y="94.31971"
       x="-409.92297"
       height="5.600347"
       width="5.600347"/>
    <rect
       y="99.920059"
       x="-409.92297"
       height="5.600347"
       width="5.600347"
       style="fill:lightGray"/>
    <rect
       y="83.119026"
       x="-401.52246"
       height="5.600347"
       width="5.600347"
       style="fill:lightGray"/>
    <rect
       y="88.719368"
       x="-401.52246"
       height="5.600347"
       width="5.600347"/>
    <rect
       y="94.31971"
       x="-401.52246"
       height="5.600347"
       width="5.600347"/>
    <rect
       y="99.920059"
       x="-401.52246"
       height="5.600347"
       width="5.600347"
       style="fill:lightGray"/>
    <rect
       width="5.600347"
       height="5.600347"
       x="-393.12198"
       y="83.119026"
       style="fill:lightGray"/>
    <rect
       width="5.600347"
       height="5.600347"
       x="-359.51987"
       y="83.119026"
       style="fill:lightGray"/>
    <rect
       y="83.119026"
       x="-325.91779"
       height="5.600347"
       width="5.600347"
       style="fill:lightGray"/>
    <rect
       y="88.71936"
       x="-325.91779"
       height="5.600347"
       width="5.600347"/>
    <rect
       y="94.31971"
       x="-325.91779"
       height="5.600347"
       width="5.600347"/>
    <rect
       y="99.920059"
       x="-325.91779"
       height="5.600347"
       width="5.600347"
       style="fill:lightGray"/>
    <rect
       y="83.119026"
       x="-317.51727"
       height="5.600347"
       width="5.600347"
       style="fill:lightGray"/>
    <rect
       y="88.71936"
       x="-317.51727"
       height="5.600347"
       width="5.600347"/>
    <rect
       y="94.31971"
       x="-317.51727"
       height="5.600347"
       width="5.600347"/>
    <rect
       y="99.920059"
       x="-317.51727"
       height="5.600347"
       width="5.600347"
       style="fill:lightGray"/>
    <rect
       y="83.119026"
       x="-309.11673"
       height="5.600347"
       width="5.600347"
       style="fill:lightGray"/>
    <rect
       y="88.71936"
       x="-309.11673"
       height="5.600347"
       width="5.600347"/>
    <rect
       y="94.31971"
       x="-309.11673"
       height="5.600347"
       width="5.600347"/>
    <rect
       y="99.920059"
       x="-309.11673"
       height="5.600347"
       width="5.600347"
       style="fill:lightGray"/>
    <rect
       width="5.600347"
       height="5.600347"
       x="-334.31836"
       y="83.119026"
       style="fill:lightGray"/>
    <rect
       y="83.119026"
       x="-351.1192"
       height="5.600347"
       width="5.600347"
       style="fill:lightGray"/>
    <rect
       y="88.719368"
       x="-351.1192"
       height="5.600347"
       width="5.600347"/>
    <rect
       y="94.31971"
       x="-351.1192"
       height="5.600347"
       width="5.600347"/>
    <rect
       y="99.920059"
       x="-351.1192"
       height="5.600347"
       width="5.600347"
       style="fill:lightGray"/>
    <rect
       y="83.119026"
       x="-342.71869"
       height="5.600347"
       width="5.600347"
       style="fill:lightGray"/>
    <rect
       y="88.719368"
       x="-342.71869"
       height="5.600347"
       width="5.600347"/>
    <rect
       y="94.31971"
       x="-342.71869"
       height="5.600347"
       width="5.600347"/>
    <rect
       y="99.920059"
       x="-342.71869"
       height="5.600347"
       width="5.600347"
       style="fill:lightGray"/>
  </g>
</svg>
