<?xml version="1.0" encoding="UTF-8" standalone="no"?>
<svg
   xmlns:dc="http://purl.org/dc/elements/1.1/"
   xmlns:cc="http://creativecommons.org/ns#"
   xmlns:rdf="http://www.w3.org/1999/02/22-rdf-syntax-ns#"
   xmlns:svg="http://www.w3.org/2000/svg"
   xmlns="http://www.w3.org/2000/svg"
   id="svg105"
   width="210.27753mm"
   height="39.467014mm"
   viewBox="0 0 794.7497 39.467014"
   version="1.1">
  <metadata
     id="metadata111">
    <rdf:RDF>
      <cc:Work
         rdf:about="">
        <dc:format>image/svg+xml</dc:format>
        <dc:type
           rdf:resource="http://purl.org/dc/dcmitype/StillImage" />
        <dc:title></dc:title>
      </cc:Work>
    </rdf:RDF>
  </metadata>
  <defs
     id="defs109" />
  <rect
     y="-54.349831"
     x="0.5"
     height="148.16667"
     width="31.75"
     style="fill:#ffffff;stroke:#000000"
     id="key-0" />
  <rect
     y="-54.349831"
     x="32.249939"
     height="148.16667"
     width="31.75"
     style="fill:#ffffff;stroke:#000000"
     id="key-5" />
  <rect
     y="-54.349831"
     x="63.999893"
     height="148.16667"
     width="31.75"
     style="fill:#ffffff;stroke:#000000"
     id="key-10" />
  <rect
     y="-54.349831"
     x="95.749924"
     height="148.16667"
     width="31.75"
     style="fill:#ffffff;stroke:#000000"
     id="key-15" />
  <rect
     y="-54.349831"
     x="127.49995"
     height="148.16667"
     width="31.75"
     style="fill:#ffffff;stroke:#000000"
     id="key-17" />
  <rect
     y="-54.349831"
     x="159.24998"
     height="148.16667"
     width="31.75"
     style="fill:#ffffff;stroke:#000000"
     id="key-22" />
  <rect
     y="-54.349831"
     x="191.00002"
     height="148.16667"
     width="31.75"
     style="fill:#ffffff;stroke:#000000"
     id="key-27" />
  <rect
     y="-54.349831"
     x="222.74998"
     height="148.16667"
     width="31.75"
     style="fill:#ffffff;stroke:#000000"
     id="key-29" />
  <rect
     y="-54.349831"
     x="254.49997"
     height="148.16667"
     width="31.75"
     style="fill:#ffffff;stroke:#000000"
     id="key-34" />
  <rect
     y="-54.349831"
     x="286.25"
     height="148.16667"
     width="31.75"
     id="key-39"
     style="fill:#ffffff;stroke:#000000" />
  <rect
     y="-54.349831"
     x="318"
     height="148.16667"
     width="31.75"
     id="key-44"
     style="fill:#ffffff;stroke:#000000" />
  <rect
     y="-54.349831"
     x="349.74997"
     height="148.16667"
     width="31.75"
     id="key-46"
     style="fill:#ffffff;stroke:#000000" />
  <rect
     y="-54.349831"
     x="381.49997"
     height="148.16667"
     width="31.75"
     id="key-51"
     style="fill:#ffffff;stroke:#000000" />
  <rect
     y="-54.349831"
     x="413.24997"
     height="148.16667"
     width="31.75"
     id="key-56"
     style="fill:#ffffff;stroke:#000000" />
  <rect
     y="-54.349831"
     x="444.99997"
     height="148.16667"
     width="31.75"
     id="key-58"
     style="fill:#ffffff;stroke:#000000" />
  <rect
     y="-54.349831"
     x="476.75"
     height="148.16667"
     width="31.75"
     id="key-63"
     style="fill:#ffffff;stroke:#000000" />
  <rect
     y="-54.349831"
     x="508.5"
     height="148.16667"
     width="31.75"
     id="key-68"
     style="fill:#ffffff;stroke:#000000" />
  <rect
     y="-54.349831"
     x="540.25006"
     height="148.16667"
     width="31.75"
     id="key-73"
     style="fill:#ffffff;stroke:#000000" />
  <rect
     y="-54.349831"
     x="572.00006"
     height="148.16667"
     width="31.75"
     id="key-75"
     style="fill:#ffffff;stroke:#000000" />
  <rect
     y="-54.349831"
     x="603.75006"
     height="148.16667"
     width="31.75"
     id="key-80"
     style="fill:#ffffff;stroke:#000000" />
  <rect
     y="-54.349831"
     x="635.5"
     height="148.16667"
     width="31.75"
     id="key-85"
     style="fill:#ffffff;stroke:#000000" />
  <rect
     y="-54.349831"
     x="667.24994"
     height="148.16667"
     width="31.75"
     id="key-87"
     style="fill:#ffffff;stroke:#000000" />
  <rect
     y="-54.349831"
     x="698.99988"
     height="148.16667"
     width="31.75"
     id="key-92"
     style="fill:#ffffff;stroke:#000000" />
  <rect
     y="-54.349831"
     x="730.74982"
     height="148.16667"
     width="31.75"
     id="key-97"
     style="fill:#ffffff;stroke:#000000" />
  <rect
     y="-54.349831"
     x="762.49969"
     height="148.16667"
     width="31.75"
     id="key-102"
     style="fill:#ffffff;stroke:#000000" />
  <rect
     y="-54.349831"
     x="21.666595"
     height="21.166666"
     width="21.166666"
     id="key-4"
     style="fill:#d3d3d3;stroke:#000000" />
  <rect
     y="-33.183174"
     x="21.666595"
     height="21.166666"
     width="21.166666"
     id="key-3"
     style="fill:#ffffff;stroke:#000000" />
  <rect
     y="-12.016517"
     x="21.666595"
     height="21.166666"
     width="21.166666"
     id="key-2"
     style="fill:#ffffff;stroke:#000000" />
  <rect
     y="9.1501551"
     x="21.666595"
     height="21.166666"
     width="21.166666"
     id="key-1"
     style="fill:#d3d3d3;stroke:#000000" />
  <rect
     y="-54.349831"
     x="53.416595"
     height="21.166666"
     width="21.166666"
     id="key-9"
     style="fill:#d3d3d3;stroke:#000000" />
  <rect
     y="-33.183174"
     x="53.416595"
     height="21.166666"
     width="21.166666"
     id="key-8"
     style="fill:#ffffff;stroke:#000000" />
  <rect
     y="-12.016517"
     x="53.416595"
     height="21.166666"
     width="21.166666"
     id="key-7"
     style="fill:#ffffff;stroke:#000000" />
  <rect
     y="9.1501551"
     x="53.416595"
     height="21.166666"
     width="21.166666"
     id="key-6"
     style="fill:#d3d3d3;stroke:#000000" />
  <rect
     y="-54.349831"
     x="85.166595"
     height="21.166666"
     width="21.166666"
     id="key-14"
     style="fill:#d3d3d3;stroke:#000000" />
  <rect
     y="-33.183174"
     x="85.166595"
     height="21.166666"
     width="21.166666"
     id="key-13"
     style="fill:#ffffff;stroke:#000000" />
  <rect
     y="-12.016517"
     x="85.166595"
     height="21.166666"
     width="21.166666"
     id="key-12"
     style="fill:#ffffff;stroke:#000000" />
  <rect
     y="9.1501551"
     x="85.166595"
     height="21.166666"
     width="21.166666"
     id="key-11"
     style="fill:#d3d3d3;stroke:#000000" />
  <rect
     y="-54.349831"
     x="148.66661"
     height="21.166666"
     width="21.166666"
     id="key-21"
     style="fill:#d3d3d3;stroke:#000000" />
  <rect
     y="-33.183174"
     x="148.66661"
     height="21.166666"
     width="21.166666"
     id="key-20"
     style="fill:#ffffff;stroke:#000000" />
  <rect
     y="-12.016517"
     x="148.66661"
     height="21.166666"
     width="21.166666"
     id="key-19"
     style="fill:#ffffff;stroke:#000000" />
  <rect
     y="9.1501551"
     x="148.66661"
     height="21.166666"
     width="21.166666"
     id="key-18"
     style="fill:#d3d3d3;stroke:#000000" />
  <rect
     y="-54.349831"
     x="180.41664"
     height="21.166666"
     width="21.166666"
     id="key-26"
     style="fill:#d3d3d3;stroke:#000000" />
  <rect
     y="-33.183174"
     x="180.41664"
     height="21.166666"
     width="21.166666"
     id="key-25"
     style="fill:#ffffff;stroke:#000000" />
  <rect
     y="-12.016517"
     x="180.41664"
     height="21.166666"
     width="21.166666"
     id="key-24"
     style="fill:#ffffff;stroke:#000000" />
  <rect
     y="9.1501551"
     x="180.41664"
     height="21.166666"
     width="21.166666"
     id="key-23"
     style="fill:#d3d3d3;stroke:#000000" />
  <rect
     id="key-16"
     width="21.166666"
     height="21.166666"
     x="116.91655"
     y="-54.349831"
     style="fill:#d3d3d3;stroke:#000000" />
  <rect
     id="key-28"
     width="21.166666"
     height="21.166666"
     x="212.16661"
     y="-54.349831"
     style="fill:#d3d3d3;stroke:#000000" />
  <rect
     id="key-45"
     width="21.166666"
     height="21.166666"
     x="339.1666"
     y="-54.349831"
     style="fill:#d3d3d3;stroke:#000000" />
  <rect
     y="-54.349831"
     x="243.91667"
     height="21.166666"
     width="21.166666"
     id="key-33"
     style="fill:#d3d3d3;stroke:#000000" />
  <rect
     y="-33.183174"
     x="243.91667"
     height="21.166666"
     width="21.166666"
     id="key-32"
     style="fill:#ffffff;stroke:#000000" />
  <rect
     y="-12.016517"
     x="243.91667"
     height="21.166666"
     width="21.166666"
     id="key-31"
     style="fill:#ffffff;stroke:#000000" />
  <rect
     y="9.1501551"
     x="243.91667"
     height="21.166666"
     width="21.166666"
     id="key-30"
     style="fill:#d3d3d3;stroke:#000000" />
  <rect
     y="-54.349831"
     x="275.66672"
     height="21.166666"
     width="21.166666"
     id="key-38"
     style="fill:#d3d3d3;stroke:#000000" />
  <rect
     y="-33.183174"
     x="275.66672"
     height="21.166666"
     width="21.166666"
     id="key-37"
     style="fill:#ffffff;stroke:#000000" />
  <rect
     y="-12.016517"
     x="275.66672"
     height="21.166666"
     width="21.166666"
     id="key-36"
     style="fill:#ffffff;stroke:#000000" />
  <rect
     y="9.1501551"
     x="275.66672"
     height="21.166666"
     width="21.166666"
     id="key-35"
     style="fill:#d3d3d3;stroke:#000000" />
  <rect
     y="-54.349831"
     x="307.41675"
     height="21.166666"
     width="21.166666"
     id="key-43"
     style="fill:#d3d3d3;stroke:#000000" />
  <rect
     y="-33.183174"
     x="307.41675"
     height="21.166666"
     width="21.166666"
     id="key-42"
     style="fill:#ffffff;stroke:#000000" />
  <rect
     y="-12.016517"
     x="307.41675"
     height="21.166666"
     width="21.166666"
     id="key-41"
     style="fill:#ffffff;stroke:#000000" />
  <rect
     y="9.1501551"
     x="307.41675"
     height="21.166666"
     width="21.166666"
     id="key-40"
     style="fill:#d3d3d3;stroke:#000000" />
  <rect
     y="-54.349831"
     x="466.16681"
     height="21.166666"
     width="21.166666"
     id="key-62"
     style="fill:#d3d3d3;stroke:#000000" />
  <rect
     y="-33.183174"
     x="466.16681"
     height="21.166666"
     width="21.166666"
     id="key-61"
     style="fill:#ffffff;stroke:#000000" />
  <rect
     y="-12.016517"
     x="466.16681"
     height="21.166666"
     width="21.166666"
     id="key-60"
     style="fill:#ffffff;stroke:#000000" />
  <rect
     y="9.1501551"
     x="466.16681"
     height="21.166666"
     width="21.166666"
     id="key-59"
     style="fill:#d3d3d3;stroke:#000000" />
  <rect
     y="-54.349831"
     x="497.91684"
     height="21.166666"
     width="21.166666"
     id="key-67"
     style="fill:#d3d3d3;stroke:#000000" />
  <rect
     y="-33.183174"
     x="497.91684"
     height="21.166666"
     width="21.166666"
     id="key-66"
     style="fill:#ffffff;stroke:#000000" />
  <rect
     y="-12.016517"
     x="497.91684"
     height="21.166666"
     width="21.166666"
     id="key-65"
     style="fill:#ffffff;stroke:#000000" />
  <rect
     y="9.1501551"
     x="497.91684"
     height="21.166666"
     width="21.166666"
     id="key-64"
     style="fill:#d3d3d3;stroke:#000000" />
  <rect
     y="-54.349831"
     x="529.66687"
     height="21.166666"
     width="21.166666"
     id="key-72"
     style="fill:#d3d3d3;stroke:#000000" />
  <rect
     y="-33.183174"
     x="529.66687"
     height="21.166666"
     width="21.166666"
     id="key-71"
     style="fill:#ffffff;stroke:#000000" />
  <rect
     y="7.9834838"
     x="529.66687"
     height="21.166666"
     width="21.166666"
     id="key-69"
     style="fill:#d3d3d3;stroke:#000000" />
  <rect
     y="-12.016517"
     x="529.66687"
     height="21.166666"
     width="21.166666"
     id="key-70"
     style="fill:#ffffff;stroke:#000000" />
  <rect
     y="-54.349831"
     x="370.91675"
     height="21.166666"
     width="21.166666"
     id="key-50"
     style="fill:#d3d3d3;stroke:#000000" />
  <rect
     y="-33.183174"
     x="370.91675"
     height="21.166666"
     width="21.166666"
     id="key-49"
     style="fill:#ffffff;stroke:#000000" />
  <rect
     y="-12.016517"
     x="370.91675"
     height="21.166666"
     width="21.166666"
     id="key-48"
     style="fill:#ffffff;stroke:#000000" />
  <rect
     y="9.1501551"
     x="370.91675"
     height="21.166666"
     width="21.166666"
     id="key-47"
     style="fill:#d3d3d3;stroke:#000000" />
  <rect
     y="-54.349831"
     x="402.66678"
     height="21.166666"
     width="21.166666"
     id="key-55"
     style="fill:#d3d3d3;stroke:#000000" />
  <rect
     y="-33.183174"
     x="402.66678"
     height="21.166666"
     width="21.166666"
     id="key-54"
     style="fill:#ffffff;stroke:#000000" />
  <rect
     y="-12.016517"
     x="402.66678"
     height="21.166666"
     width="21.166666"
     id="key-53"
     style="fill:#ffffff;stroke:#000000" />
  <rect
     y="9.1501551"
     x="402.66678"
     height="21.166666"
     width="21.166666"
     id="key-52"
     style="fill:#d3d3d3;stroke:#000000" />
  <rect
     id="key-57"
     width="21.166666"
     height="21.166666"
     x="434.4166"
     y="-54.349831"
     style="fill:#d3d3d3;stroke:#000000" />
  <rect
     id="key-74"
     width="21.166666"
     height="21.166666"
     x="561.41669"
     y="-54.349831"
     style="fill:#d3d3d3;stroke:#000000" />
  <rect
     y="-54.349831"
     x="688.41675"
     height="21.166666"
     width="21.166666"
     id="key-91"
     style="fill:#d3d3d3;stroke:#000000" />
  <rect
     y="-33.183189"
     x="688.41675"
     height="21.166666"
     width="21.166666"
     id="key-90"
     style="fill:#ffffff;stroke:#000000" />
  <rect
     y="-12.016517"
     x="688.41675"
     height="21.166666"
     width="21.166666"
     id="key-89"
     style="fill:#ffffff;stroke:#000000" />
  <rect
     y="9.1501551"
     x="688.41675"
     height="21.166666"
     width="21.166666"
     id="key-88"
     style="fill:#d3d3d3;stroke:#000000" />
  <rect
     y="-54.349831"
     x="720.16675"
     height="21.166666"
     width="21.166666"
     id="key-96"
     style="fill:#d3d3d3;stroke:#000000" />
  <rect
     y="-33.183189"
     x="720.16675"
     height="21.166666"
     width="21.166666"
     id="key-95"
     style="fill:#ffffff;stroke:#000000" />
  <rect
     y="-12.016517"
     x="720.16675"
     height="21.166666"
     width="21.166666"
     id="key-94"
     style="fill:#ffffff;stroke:#000000" />
  <rect
     y="9.1501551"
     x="720.16675"
     height="21.166666"
     width="21.166666"
     id="key-93"
     style="fill:#d3d3d3;stroke:#000000" />
  <rect
     y="-54.349831"
     x="751.91681"
     height="21.166666"
     width="21.166666"
     id="key-101"
     style="fill:#d3d3d3;stroke:#000000" />
  <rect
     y="-33.183189"
     x="751.91681"
     height="21.166666"
     width="21.166666"
     id="key-100"
     style="fill:#ffffff;stroke:#000000" />
  <rect
     y="-12.016517"
     x="751.91681"
     height="21.166666"
     width="21.166666"
     id="key-99"
     style="fill:#ffffff;stroke:#000000" />
  <rect
     y="9.1501551"
     x="751.91681"
     height="21.166666"
     width="21.166666"
     id="key-98"
     style="fill:#d3d3d3;stroke:#000000" />
  <rect
     id="key-86"
     width="21.166666"
     height="21.166666"
     x="656.66656"
     y="-54.349831"
     style="fill:#d3d3d3;stroke:#000000" />
  <rect
     y="-54.349831"
     x="593.16724"
     height="21.166666"
     width="21.166666"
     id="key-79"
     style="fill:#d3d3d3;stroke:#000000" />
  <rect
     y="-33.183174"
     x="593.16724"
     height="21.166666"
     width="21.166666"
     id="key-78"
     style="fill:#ffffff;stroke:#000000" />
  <rect
     y="-12.016517"
     x="593.16724"
     height="21.166666"
     width="21.166666"
     id="key-77"
     style="fill:#ffffff;stroke:#000000" />
  <rect
     y="9.1501551"
     x="593.16724"
     height="21.166666"
     width="21.166666"
     id="key-76"
     style="fill:#d3d3d3;stroke:#000000" />
  <rect
     y="-54.349831"
     x="624.91724"
     height="21.166666"
     width="21.166666"
     id="key-84"
     style="fill:#d3d3d3;stroke:#000000" />
  <rect
     y="-33.183174"
     x="624.91724"
     height="21.166666"
     width="21.166666"
     id="key-83"
     style="fill:#ffffff;stroke:#000000" />
  <rect
     y="-12.016517"
     x="624.91724"
     height="21.166666"
     width="21.166666"
     id="key-82"
     style="fill:#ffffff;stroke:#000000" />
  <rect
     y="9.1501551"
     x="624.91724"
     height="21.166666"
     width="21.166666"
     id="key-81"
     style="fill:#d3d3d3;stroke:#000000" />
</svg>
